<svg width="24" height="24" viewBox="0 0 24 24" fill="none" xmlns="http://www.w3.org/2000/svg">
<path d="M12 20.8881L19.6974 16.4438L19.6974 7.55575L12 3.11182L4.30273 7.55575V16.4438L12 20.8881ZM6.04119 16.2425C5.60694 16.0694 5.2542 15.5713 5.2542 15.1295C5.25547 14.6877 5.60694 14.47 6.04119 14.6418C6.47548 14.8149 6.82822 15.3131 6.82822 15.7561C6.82822 16.1966 6.47548 16.4156 6.04119 16.2425ZM5.2333 12.8471C5.2333 12.4053 5.58477 12.1876 6.02033 12.3594C6.45327 12.5325 6.80605 13.0307 6.80605 13.4724C6.80605 13.9145 6.45331 14.1323 6.01902 13.9601C5.58477 13.787 5.2333 13.2879 5.2333 12.8471ZM6.04119 11.6182C5.60694 11.4451 5.25547 10.9473 5.25547 10.5052C5.25547 10.0634 5.60694 9.84564 6.04245 10.0188C6.47675 10.1909 6.82822 10.69 6.82822 11.1305C6.82822 11.5739 6.47548 11.7917 6.04119 11.6182ZM10.1925 18.6262C9.75819 18.4531 9.40545 17.9549 9.40545 17.5131C9.40672 17.0713 9.75819 16.8536 10.1925 17.0254C10.6267 17.1985 10.9795 17.6966 10.9795 18.1398C10.9795 18.5802 10.6267 18.7993 10.1925 18.6262ZM9.38459 15.2308C9.38459 14.789 9.73602 14.5713 10.1716 14.7431C10.6045 14.9162 10.9573 15.4143 10.9573 15.8561C10.9573 16.2982 10.6046 16.516 10.1703 16.3438C9.73602 16.1707 9.38459 15.6716 9.38459 15.2308ZM10.1925 14.0019C9.75819 13.8288 9.40672 13.3309 9.40672 12.8889C9.40672 12.4471 9.75819 12.2293 10.1937 12.4024C10.628 12.5746 10.9795 13.0737 10.9795 13.5142C10.9795 13.9576 10.6267 14.1753 10.1925 14.0019ZM8.75248 7.21741C8.9555 6.89097 9.60533 6.66236 10.206 6.70797C10.805 6.75194 11.1261 7.05372 10.9234 7.37983C10.7194 7.70758 10.0696 7.93619 9.47028 7.89058C8.86963 7.8453 8.54848 7.54352 8.75248 7.21741ZM13.0434 7.53986C13.246 7.21211 13.8972 6.98482 14.4965 7.02874C15.0958 7.07435 15.4182 7.3758 15.214 7.70224C15.0113 8.02966 14.3601 8.25729 13.7608 8.21304C13.1605 8.16743 12.8394 7.86597 13.0434 7.53986ZM16.7949 14.7003C16.4343 15.1486 15.9224 15.2402 15.6525 14.9077C15.38 14.5742 15.4523 13.9413 15.8129 13.4944C16.1732 13.0461 16.6853 12.9542 16.9566 13.2881C17.2278 13.6202 17.1552 14.2533 16.7949 14.7003Z" fill="white"/>
</svg>
