<svg width="141" height="148" viewBox="0 0 141 148" fill="none" xmlns="http://www.w3.org/2000/svg">
<path d="M-8.4967 59.1198H123.334V61.5333H-8.4967V59.1198Z" fill="#5D80F6"/>
<path d="M119.563 61.5327L112.322 64.7006L107.044 67.6543H4.62565L0.703934 64.5935L-6.08369 61.5327H119.563Z" fill="#3B5AF3"/>
<path d="M12.6579 65.3415L16.4287 70.168L19.4076 83.7813L18.9927 94.7921L22.8769 114.099L18.4273 122.018L-1.40771 144.191L31.6256 160.934L46.1057 131.219L73.1053 100.901L102.066 68.1694L98.8981 64.7006L96.485 66.0578L93.9206 63.4939H88.0382L50.3289 89.5886L35.6978 86.5717L26.6476 66.6612L16.9946 62.2871L12.6579 65.3415Z" fill="#BB4FED"/>
<path d="M64.765 79.5985L63.7536 72.9964L64.9407 67.6543L61.0574 67.6415L58.5497 70.7338L57.6049 84.5533L64.765 79.5985Z" fill="#5412A0"/>
<path d="M35.698 86.5717L38.4884 93.0573L38.7834 87.2076L35.698 86.5717Z" fill="#5412A0"/>
<path d="M96.485 66.0578L64.319 97.8276L65.1109 102.409L66.5554 97.4571L97.7668 67.9434L102.066 68.1694L98.8981 64.7006L96.485 66.0578Z" fill="#5412A0"/>
<path d="M93.9206 63.4939L88.726 69.7156L90.6561 71.8149L96.4851 66.0579L93.9206 63.4939Z" fill="#F0BBE7"/>
<path d="M102.066 68.1694L100.069 65.9828L97.7668 67.9434L94.9482 72.1764L97.0055 73.8884L102.066 68.1694Z" fill="#F0BBE7"/>
<path d="M16.9947 62.2871L21.0481 68.3016L16.4288 70.168L12.658 65.3415L16.9947 62.2871Z" fill="#F0BBE7"/>
<path d="M22.877 114.099L20.313 124.281L4.72775 147.301L-1.40765 144.191L22.877 114.099Z" fill="#5412A0"/>
<path d="M88.0383 63.4939L78.6862 67.6544H82.0258L88.0383 63.4939Z" fill="#5412A0"/>
<path d="M56.2784 3.88079C56.31 3.8803 56.3411 3.87585 56.3727 3.87585C59.4843 3.87585 62.0063 6.3984 62.0063 9.50952C62.0063 9.86622 61.9693 10.214 61.9062 10.552C53.1027 11.2619 54.5694 6.71514 56.2784 3.88079Z" fill="#BB4FED"/>
<path d="M56.3725 15.1436C53.2609 15.1436 50.7388 12.6211 50.7388 9.50996C50.7388 6.43042 53.2105 3.93155 56.2783 3.88074C54.5693 6.71558 53.1025 11.2619 61.906 10.5524C61.4166 13.1653 59.1274 15.1436 56.3725 15.1436Z" fill="#5412A0"/>
<path d="M12.6582 65.3414L13.0726 67.6415L14.4648 67.6543L12.6582 65.3414Z" fill="#5412A0"/>
<path d="M119.563 61.5327L116.645 62.8095L73.0299 62.1711L20.313 63.4938L16.9946 62.2871L15.2812 63.4938L-3.90948 62.5135L-6.08369 61.5327H119.563Z" fill="#5412A0"/>
<path d="M38.1114 31.3659L59.5167 12.2798C85.389 13.5916 106.317 33.6353 109.01 59.1198H49.5987L36.4522 53.8403L38.1114 31.3659Z" fill="#F2BC36"/>
<path d="M56.8152 12.2097C57.7215 12.2097 58.6219 12.2344 59.5168 12.2798L38.1115 31.3659L36.4523 53.8403L49.5989 59.1198H4.61981C7.4063 32.7537 29.7106 12.2097 56.8152 12.2097Z" fill="#E87F31"/>
<path d="M79.1387 20.5804L86.2658 24.6911L91.9221 30.4605H85.0215L81.5147 26.2047L73.8218 22.5415L79.1387 20.5804Z" fill="#F5F792"/>
<path d="M72.2381 23.5599L78.6863 27.4062L81.1753 30.4605H75.6319L73.8218 28.3115L68.8443 25.5205L72.2381 23.5599Z" fill="#F5F792"/>
</svg>
