<svg width="48" height="48" viewBox="0 0 48 48" fill="none" xmlns="http://www.w3.org/2000/svg">
<rect width="48" height="48" rx="24" fill="#A670FF"/>
<path fill-rule="evenodd" clip-rule="evenodd" d="M33.1539 17.641C31.9509 17.251 31.0009 16.303 30.6119 15.102C30.4789 14.69 29.7939 14.69 29.6609 15.102C29.2719 16.303 28.3219 17.251 27.1189 17.641C26.9129 17.708 26.7729 17.9 26.7729 18.117C26.7729 18.333 26.9129 18.525 27.1189 18.592C28.3199 18.981 29.2699 19.934 29.6609 21.141C29.7269 21.347 29.9199 21.487 30.1359 21.487C30.3529 21.487 30.5459 21.347 30.6119 21.141C31.0029 19.934 31.9529 18.981 33.1539 18.592C33.3599 18.525 33.4999 18.333 33.4999 18.117C33.4999 17.9 33.3599 17.708 33.1539 17.641Z" fill="white"/>
<path fill-rule="evenodd" clip-rule="evenodd" d="M29.574 24.4012L24.841 22.8642L23.305 18.1322C23.173 17.7222 22.807 17.4572 22.375 17.4572C21.942 17.4572 21.577 17.7222 21.444 18.1322L19.921 22.8612L15.179 24.4002C14.773 24.5292 14.5 24.9032 14.5 25.3322C14.5 25.7602 14.773 26.1342 15.177 26.2622L19.906 27.7912L21.444 32.5312C21.577 32.9412 21.942 33.2072 22.375 33.2072C22.807 33.2072 23.173 32.9412 23.305 32.5312L24.83 27.8022L29.571 26.2632C29.977 26.1342 30.251 25.7602 30.251 25.3322C30.251 24.9032 29.977 24.5292 29.574 24.4012Z" fill="white"/>
</svg>
